<?xml version="1.0" standalone="no"?>
<!DOCTYPE svg PUBLIC "-//W3C//DTD SVG 20010904//EN"
 "http://www.w3.org/TR/2001/REC-SVG-20010904/DTD/svg10.dtd">
<svg version="1.0" xmlns="http://www.w3.org/2000/svg"
 width="512.000000pt" height="512.000000pt" viewBox="0 0 512.000000 512.000000"
 preserveAspectRatio="xMidYMid meet">

<g transform="translate(0.000000,512.000000) scale(0.100000,-0.100000)"
fill="#000000" stroke="none">
<path d="M2409 4619 c-132 -11 -294 -49 -418 -98 -160 -64 -274 -133 -419
-254 l-84 -70 58 -58 57 -58 66 58 c267 235 621 351 979 320 285 -25 542 -134
753 -320 l66 -58 57 58 58 58 -84 70 c-258 216 -523 325 -854 353 -65 5 -123
9 -129 8 -5 0 -53 -4 -106 -9z"/>
<path d="M2445 4294 c-199 -27 -307 -59 -440 -127 -83 -43 -213 -135 -255
-181 l-24 -27 54 -54 55 -54 80 65 c101 82 250 157 380 190 84 22 122 26 240
26 118 0 156 -4 240 -26 130 -33 279 -108 380 -190 l80 -65 55 54 54 54 -24
27 c-42 45 -172 137 -256 181 -93 49 -208 89 -309 108 -77 15 -260 26 -310 19z"/>
<path d="M2388 3954 c-140 -25 -285 -95 -393 -188 l-40 -35 57 -57 56 -57 49
41 c120 100 254 147 418 147 164 0 298 -47 418 -147 l49 -41 56 57 57 57 -35
31 c-191 166 -445 237 -692 192z"/>
<path d="M2406 3620 c-147 -47 -254 -172 -275 -322 -28 -199 89 -381 281 -439
85 -26 172 -22 261 11 81 31 175 119 213 202 26 57 29 73 29 168 0 98 -2 109
-32 170 -17 36 -43 77 -56 92 -110 119 -274 165 -421 118z m197 -154 c97 -35
157 -121 157 -226 0 -145 -120 -253 -262 -237 -125 15 -210 111 -210 237 0 64
17 111 57 158 60 71 168 100 258 68z"/>
<path d="M550 1535 l0 -965 1990 0 1990 0 0 965 0 965 -1990 0 -1990 0 0 -965z
m3820 0 l0 -805 -1830 0 -1830 0 0 805 0 805 1830 0 1830 0 0 -805z"/>
<path d="M3379 2131 l-24 -19 -3 -553 c-2 -384 1 -562 8 -580 19 -45 43 -49
300 -49 l240 0 0 80 0 80 -195 0 -195 0 0 185 0 185 190 0 190 0 0 80 0 80
-190 0 -190 0 0 185 0 185 195 0 195 0 0 80 0 80 -249 0 c-230 0 -251 -1 -272
-19z"/>
<path d="M2291 2106 c-36 -12 -66 -27 -68 -32 -2 -6 82 -255 187 -555 200
-569 209 -589 265 -589 57 0 65 19 254 576 100 293 181 536 181 542 0 11 -137
59 -145 51 -2 -3 -69 -193 -147 -422 -78 -229 -145 -411 -149 -404 -4 6 -73
202 -155 435 -81 232 -150 422 -153 421 -3 0 -35 -11 -70 -23z"/>
<path d="M1130 1515 l0 -585 250 0 250 0 0 80 0 80 -170 0 -170 0 0 505 0 505
-80 0 -80 0 0 -585z"/>
<path d="M1870 1510 l0 -591 78 3 77 3 3 588 2 587 -80 0 -80 0 0 -590z"/>
</g>
</svg>
